<svg xmlns="http://www.w3.org/2000/svg" width="32" height="32">
  <path fill="#54be96" d="M29 12a1 1 0 0 0 1-1V9a3 3 0 1 0-6 0v5.18a4.138 4.138 0 0 0-1.78-.396 4.188 4.188 0 0 0-2.687.971l.007-.005-2.46 2.05a5.905 5.905 0 0 0-1.067 1.18L16 18a5.927 5.927 0 0 0-1.071-1.193l-.009-.007-2.46-2.05a4.176 4.176 0 0 0-2.68-.966c-.646 0-1.259.146-1.806.407l.025-.011V9a3 3 0 1 0-6 0v6.52a7.608 7.608 0 0 0 1.888 5.009l-.008-.009 1 1.13a1.003 1.003 0 1 0 1.509-1.321l.001.001-1-1.13a5.54 5.54 0 0 1-1.39-3.68V9a1 1 0 0 1 2 0v5.82a3.891 3.891 0 0 0 1.12 2.721l4.12 4.13c.181.183.432.296.71.296s.529-.113.71-.296c.183-.181.296-.432.296-.71s-.113-.529-.296-.71l-4.08-4.1c.341-.229.76-.366 1.212-.366a2.18 2.18 0 0 1 1.392.499l-.004-.003 2.46 2c.834.7 1.36 1.743 1.36 2.909v.054-.003 6.76h-4V27.432a4.803 4.803 0 0 0-1.195-3.177l.005.006-1.06-1.2a1 1 0 1 0-1.501 1.31l1.05 1.21c.435.492.7 1.143.7 1.856v1.564a1 1 0 0 0 1 1h12a1 1 0 0 0 1-1v-1.564c0-.713.265-1.363.703-1.859l-.003.003 4.42-5a7.6 7.6 0 0 0 1.88-4.999v-.581a1 1 0 0 0-2 0v.529a5.549 5.549 0 0 1-1.395 3.687l.005-.006-4.42 5.05a4.797 4.797 0 0 0-1.19 3.171V28.001h-4v-6.762c0-1.166.526-2.208 1.354-2.904l2.466-2.005a2.15 2.15 0 0 1 1.373-.492c.459 0 .884.143 1.234.387l-.007-.005-4.13 4.12a1.004 1.004 0 1 0 1.42 1.42l4.16-4.17a3.8 3.8 0 0 0 1.131-2.709l-.001-.065v.003-5.82a1 1 0 0 1 2 0v2a1 1 0 0 0 1 1z"/>
  <path fill="#54be96" d="M10 7h.45a6.641 6.641 0 0 0 4.513 2.915L15 9.92V11h-1a1 1 0 0 0 0 2h4a1 1 0 0 0 0-2h-1V9.92a6.648 6.648 0 0 0 4.535-2.895L21.55 7H22a1 1 0 0 0 0-2h-3a1 1 0 0 0-1 1v.004a1 1 0 0 0 .906.996h.004a4.588 4.588 0 0 1-1.879.894L17 7.9V4h1a1 1 0 0 0 0-2h-4a1 1 0 0 0 0 2h1v3.88a4.482 4.482 0 0 1-1.919-.887L13.09 7c.512-.048.91-.475.91-.996V6a1 1 0 0 0-1-1h-3a1 1 0 0 0 0 2z"/>
</svg>
