<svg xmlns="http://www.w3.org/2000/svg" aria-hidden="true" style="position:absolute;width:0;height:0;overflow:hidden">
  <defs>
    <symbol id="icon-star" viewBox="0 0 32 32">
      <path d="M12.4 9.394 16 2.572l3.6 6.822a2.2 2.2 0 0 0 1.571 1.141l7.601 1.315-5.376 5.532a2.2 2.2 0 0 0-.6 1.846l1.098 7.635-6.922-3.404a2.199 2.199 0 0 0-1.941 0l-6.922 3.404 1.098-7.635a2.2 2.2 0 0 0-.6-1.846L3.231 11.85l7.601-1.315a2.202 2.202 0 0 0 1.571-1.141zm16.635 2.185zM7.767 27.031z"/>
      <path d="m16 0-4.66 8.836a.995.995 0 0 1-.715.516L.781 11.055l6.965 7.164a.997.997 0 0 1 .27.84l-1.422 9.887 8.965-4.41a1 1 0 0 1 .883 0l8.965 4.41-1.422-9.887a.997.997 0 0 1 .27-.84l6.965-7.164-9.844-1.703a.996.996 0 0 1-.715-.516zm0 5.145 2.539 4.809a3.404 3.404 0 0 0 2.426 1.766l5.363.926-3.793 3.902a3.4 3.4 0 0 0-.93 2.852l.777 5.383-4.883-2.398a3.4 3.4 0 0 0-3 0l-4.883 2.398.777-5.383a3.402 3.402 0 0 0-.93-2.852L5.67 12.646l5.363-.926a3.404 3.404 0 0 0 2.426-1.766z"/>
    </symbol>
    <symbol id="icon-menu" viewBox="0 0 32 32">
      <path d="M4 10.156a1.176 1.176 0 1 0 0 2.352h24a1.176 1.176 0 1 0 0-2.352zm0 9.335a1.176 1.176 0 1 0 0 2.352h24a1.176 1.176 0 1 0 0-2.352z"/>
    </symbol>
    <symbol id="icon-heart-selected" viewBox="0 0 32 32">
      <path d="M27.787 6.147a7.326 7.326 0 0 0-10.373 0L16.001 7.56l-1.413-1.413a7.333 7.333 0 0 0-10.374 0 7.333 7.333 0 0 0 0 10.374l11.787 11.787 11.787-11.787a7.345 7.345 0 0 0 2.15-5.187 7.33 7.33 0 0 0-2.15-5.187z"/>
      <path d="M9.399 2.767a8.57 8.57 0 0 0-8.565 8.568c0 2.271.904 4.449 2.51 6.055L15.13 29.178a1.23 1.23 0 0 0 1.74 0L28.656 17.39a8.567 8.567 0 0 0 1.858-9.334 8.567 8.567 0 0 0-7.913-5.288 8.567 8.567 0 0 0-6.058 2.509L16 5.82l-.543-.543a8.57 8.57 0 0 0-6.058-2.51zm0 2.461c1.619 0 3.172.643 4.317 1.788l1.413 1.413a1.23 1.23 0 0 0 1.74 0l1.413-1.413A6.11 6.11 0 0 1 22.6 5.227a6.09 6.09 0 0 1 4.315 1.789 6.104 6.104 0 0 1 0 8.633L15.999 26.567 5.083 15.649a6.103 6.103 0 0 1 4.315-10.42z"/>
    </symbol>
    <symbol id="icon-heart" viewBox="0 0 32 32">
      <path d="M9.399 2.767a8.57 8.57 0 0 0-8.565 8.568c0 2.271.904 4.449 2.51 6.055L15.13 29.178a1.23 1.23 0 0 0 1.74 0L28.656 17.39a8.567 8.567 0 0 0 1.858-9.334 8.567 8.567 0 0 0-7.913-5.288 8.567 8.567 0 0 0-6.058 2.509L16 5.82l-.543-.543a8.57 8.57 0 0 0-6.058-2.51zm0 2.461c1.619 0 3.172.643 4.317 1.788l1.413 1.413a1.23 1.23 0 0 0 1.74 0l1.413-1.413A6.11 6.11 0 0 1 22.6 5.227a6.09 6.09 0 0 1 4.315 1.789 6.104 6.104 0 0 1 0 8.633L15.999 26.567 5.083 15.649a6.1 6.1 0 0 1 0-8.632 6.099 6.099 0 0 1 4.315-1.788z"/>
    </symbol>
    <symbol id="icon-eye-off" viewBox="0 0 32 32">
      <path d="M16 3.734a13.828 13.828 0 0 0-3.166.362 1.603 1.603 0 0 0-1.192 1.933l-.002-.011a1.602 1.602 0 0 0 1.936 1.191l-.011.002a10.53 10.53 0 0 1 2.431-.278H16c7.541 0 12.065 7.896 12.728 9.091-.654 1.112-1.334 2.209-2.166 3.197a1.6 1.6 0 0 0 .191 2.254l.002.002a1.597 1.597 0 0 0 2.252-.192l.002-.002a26.324 26.324 0 0 0 3.069-4.531 1.601 1.601 0 0 0 .015-1.478l.004.009S26.554 3.735 16.003 3.733zm-7.706 2.76a1.593 1.593 0 0 0-1.188.318l.004-.003a26.194 26.194 0 0 0-7.184 8.434c-.12.219-.19.48-.19.757 0 .261.062.507.173.724l-.004-.009s5.545 11.55 16.097 11.55h.025-.001a15.031 15.031 0 0 0 8.866-3.072 1.6 1.6 0 0 0 .3-2.247l.003.004a1.6 1.6 0 0 0-2.247-.3l.004-.003a11.82 11.82 0 0 1-6.963 2.416c-7.53-.01-12.047-7.886-12.713-9.084 1.505-2.546 3.42-4.826 5.775-6.625a1.6 1.6 0 0 0 .3-2.247l.003.004a1.603 1.603 0 0 0-1.051-.615l-.008-.001zm3.787 5.509A5.608 5.608 0 0 0 10.3 16a5.622 5.622 0 0 0 1.64 4.06A5.588 5.588 0 0 0 16 21.7a5.607 5.607 0 0 0 3.997-1.781c.267-.285.431-.67.431-1.092 0-.462-.195-.877-.508-1.169l-.001-.001a1.594 1.594 0 0 0-1.092-.431c-.462 0-.877.195-1.169.508l-.001.001a2.397 2.397 0 0 1-3.453.062 2.397 2.397 0 0 1 .062-3.453 1.599 1.599 0 0 0 .077-2.263l.001.001a1.599 1.599 0 0 0-2.263-.077l.001-.001z"/>
      <path d="M1.334-.266A1.597 1.597 0 0 0 .203 2.465l29.331 29.331c.29.289.689.468 1.131.468s.842-.179 1.131-.468a1.597 1.597 0 0 0 .001-2.262L2.466.203a1.591 1.591 0 0 0-1.131-.469z"/>
    </symbol>
    <symbol id="icon-eye" viewBox="0 0 32 32">
      <path d="M16 3.734c-10.552 0-16.097 11.55-16.097 11.55-.107.209-.169.455-.169.716s.062.507.173.725l-.004-.009S5.448 28.266 16 28.266s16.097-11.55 16.097-11.55c.107-.209.169-.455.169-.716s-.062-.507-.173-.725l.004.009S26.553 3.734 16 3.734zm0 3.2c7.521 0 12.029 7.837 12.712 9.066-.683 1.229-5.191 9.066-12.713 9.066S3.97 17.229 3.286 16c.683-1.229 5.191-9.066 12.713-9.066z"/>
      <path d="M16 10.4c-3.074 0-5.6 2.526-5.6 5.6s2.526 5.6 5.6 5.6 5.6-2.526 5.6-5.6-2.526-5.6-5.6-5.6zm0 3.2c1.344 0 2.4 1.056 2.4 2.4s-1.056 2.4-2.4 2.4c-1.344 0-2.4-1.056-2.4-2.4s1.056-2.4 2.4-2.4z"/>
    </symbol>
    <symbol id="icon-close" viewBox="0 0 32 32">
      <path d="M24 6.75h-.002c-.345 0-.657.14-.883.365l-16 16c-.227.226-.367.539-.367.885s.14.658.367.885c.226.227.539.367.885.367s.658-.14.885-.367l16-16c.227-.226.367-.539.367-.885s-.14-.658-.367-.885a1.244 1.244 0 0 0-.883-.365H24z"/>
      <path d="M8 6.75h-.002c-.345 0-.657.14-.883.365-.227.226-.367.539-.367.885s.14.658.367.885l16 16c.226.227.539.367.885.367s.658-.14.885-.367c.227-.226.367-.539.367-.885s-.14-.658-.367-.885l-16-16a1.244 1.244 0 0 0-.883-.365H8z"/>
    </symbol>
    <symbol id="icon-clock" viewBox="0 0 32 32">
      <path d="M16 1.466C7.988 1.466 1.466 7.988 1.466 16S7.988 30.534 16 30.534 30.534 24.012 30.534 16 24.012 1.466 16 1.466zm0 2.4c6.715 0 12.134 5.419 12.134 12.134S22.715 28.134 16 28.134C9.285 28.134 3.866 22.715 3.866 16S9.285 3.866 16 3.866z"/>
      <path d="M16 6.8A1.2 1.2 0 0 0 14.8 8v8c0 .466.267.87.656 1.069l.007.003 5.334 2.669a1.2 1.2 0 0 0 1.606-.531l.003-.007a1.2 1.2 0 0 0-.531-1.606l-.007-.003-4.669-2.334V8.001a1.2 1.2 0 0 0-1.2-1.2z"/>
    </symbol>
    <symbol id="icon-chevron-up" viewBox="0 0 32 32">
      <path d="m14.869 10.869-8 8c-.289.29-.468.689-.468 1.131s.179.842.468 1.131c.29.289.689.468 1.131.468s.842-.179 1.131-.468L16 14.262l6.869 6.869c.29.289.689.468 1.131.468s.842-.179 1.131-.468c.289-.29.468-.689.468-1.131s-.179-.842-.468-1.131l-8-8c-.29-.289-.689-.468-1.131-.468s-.842.179-1.131.468z"/>
    </symbol>
    <symbol id="icon-chevron-down" viewBox="0 0 32 32">
      <path d="M8 10.4A1.596 1.596 0 0 0 6.401 12c0 .442.179.842.468 1.131l8 8a1.598 1.598 0 0 0 2.262 0l8-8c.289-.29.468-.689.468-1.131s-.179-.842-.468-1.131a1.597 1.597 0 0 0-2.262 0L16 17.738l-6.869-6.869A1.593 1.593 0 0 0 8 10.4z"/>
    </symbol>
    <symbol id="icon-users" viewBox="0 0 32 32">
      <path d="m19.043 22.529-.548 2.044L4.189 20.74l.548-2.044s1.095-4.087 8.248-2.171 6.058 6.004 6.058 6.004zm-.976-10.666a3.704 3.704 0 0 0-3.334-4.653 3.706 3.706 0 0 0-3.563 2.057 3.707 3.707 0 0 0 .537 4.079 3.704 3.704 0 0 0 6.36-1.483zm2.01 6.562a5.63 5.63 0 0 1 1.01 4.652l-.548 2.044 4.087 1.095.548-2.044s.994-3.709-5.097-5.747zm1.503-9.454a3.597 3.597 0 0 0-2.134.074 5.288 5.288 0 0 1-1.593 5.947 3.583 3.583 0 0 0 1.811 1.131 3.705 3.705 0 0 0 4.535-2.618 3.704 3.704 0 0 0-2.618-4.535z"/>
    </symbol>
    <symbol id="icon-user" viewBox="0 0 32 32">
      <path d="M16 5.333a5.332 5.332 0 1 1 0 10.665 5.332 5.332 0 0 1 0-10.665zm0 13.334c5.893 0 10.667 2.387 10.667 5.333v2.667H5.334V24c0-2.947 4.773-5.333 10.667-5.333z"/>
    </symbol>
    <symbol id="icon-question" viewBox="0 0 19 32">
      <path d="M4.706 10c0-2.206 1.688-4 3.765-4h1.882c2.076 0 3.765 1.794 3.765 4v.225c0 1.363-.653 2.631-1.729 3.362l-2.482 1.694c-.729.498-1.328 1.182-1.744 1.99s-.633 1.714-.633 2.635V20c0 1.106.841 2 1.882 2s1.882-.894 1.882-2v-.088c0-.512.247-.987.647-1.262l2.482-1.694c2.153-1.475 3.459-4.006 3.459-6.731V10c0-4.419-3.371-8-7.529-8H8.471C4.312 2 .942 5.581.942 10c0 1.106.841 2 1.882 2s1.882-.894 1.882-2zm4.706 20c.624 0 1.223-.263 1.664-.732s.689-1.105.689-1.768-.248-1.299-.689-1.768S10.036 25 9.412 25s-1.223.263-1.664.732c-.441.469-.689 1.105-.689 1.768s.248 1.299.689 1.768S8.788 30 9.412 30z"/>
    </symbol>
    <symbol id="icon-check" viewBox="0 0 32 32">
      <path d="M8 13.333 5.333 16l8 8 13.333-13.333L23.999 8 13.332 18.667l-5.333-5.333z"/>
    </symbol>
    <symbol id="icon-arrow" viewBox="0 0 28 32">
      <path d="M24.137 3.149a1.882 1.882 0 0 0-2.126-1.602L5.235 3.905a1.883 1.883 0 0 0 .524 3.728l14.912-2.096 2.096 14.912a1.882 1.882 0 1 0 3.728-.524L24.137 3.149zM3.386 31.604l20.391-27.06-3.007-2.266L.379 29.338l3.007 2.266z"/>
    </symbol>
  </defs>
</svg>
